<?xml version="1.0" encoding="UTF-8" standalone="no"?>
<!-- Created with Inkscape (http://www.inkscape.org/) -->
<svg
   xmlns:dc="http://purl.org/dc/elements/1.1/"
   xmlns:cc="http://web.resource.org/cc/"
   xmlns:rdf="http://www.w3.org/1999/02/22-rdf-syntax-ns#"
   xmlns:svg="http://www.w3.org/2000/svg"
   xmlns="http://www.w3.org/2000/svg"
   xmlns:xlink="http://www.w3.org/1999/xlink"
   xmlns:sodipodi="http://sodipodi.sourceforge.net/DTD/sodipodi-0.dtd"
   xmlns:inkscape="http://www.inkscape.org/namespaces/inkscape"
   width="744.09448819"
   height="1052.3622047"
   id="svg2"
   sodipodi:version="0.32"
   inkscape:version="0.45.1"
   sodipodi:docbase="/home/jreznik/Documents/Drawings"
   sodipodi:docname="makneto_icons.svg"
   inkscape:output_extension="org.inkscape.output.svg.inkscape">
  <defs
     id="defs4">
    <linearGradient
       id="linearGradient3185">
      <stop
         id="stop3187"
         offset="0"
         style="stop-color:#5d6756;stop-opacity:1;" />
      <stop
         id="stop3189"
         offset="1"
         style="stop-color:#404b39;stop-opacity:0;" />
    </linearGradient>
    <linearGradient
       inkscape:collect="always"
       id="linearGradient4231">
      <stop
         style="stop-color:#44aa00;stop-opacity:1;"
         offset="0"
         id="stop4233" />
      <stop
         style="stop-color:#44aa00;stop-opacity:0;"
         offset="1"
         id="stop4235" />
    </linearGradient>
    <linearGradient
       inkscape:collect="always"
       id="linearGradient4207">
      <stop
         style="stop-color:#e2feca;stop-opacity:1;"
         offset="0"
         id="stop4209" />
      <stop
         style="stop-color:#e2feca;stop-opacity:0;"
         offset="1"
         id="stop4211" />
    </linearGradient>
    <linearGradient
       inkscape:collect="always"
       xlink:href="#linearGradient4207"
       id="linearGradient4277"
       gradientUnits="userSpaceOnUse"
       x1="274.26056"
       y1="420.56201"
       x2="277.34851"
       y2="479.65594"
       gradientTransform="translate(93.837545,-17.713337)" />
    <linearGradient
       inkscape:collect="always"
       xlink:href="#linearGradient3185"
       id="linearGradient2212"
       gradientUnits="userSpaceOnUse"
       x1="265.46918"
       y1="355.95465"
       x2="229.10367"
       y2="149.88353" />
    <linearGradient
       inkscape:collect="always"
       xlink:href="#linearGradient4231"
       id="linearGradient5214"
       gradientUnits="userSpaceOnUse"
       x1="265.46918"
       y1="355.95465"
       x2="229.10367"
       y2="149.88353" />
    <linearGradient
       inkscape:collect="always"
       xlink:href="#linearGradient4231"
       id="linearGradient5242"
       gradientUnits="userSpaceOnUse"
       x1="265.46918"
       y1="355.95465"
       x2="229.10367"
       y2="149.88353" />
    <linearGradient
       inkscape:collect="always"
       xlink:href="#linearGradient4231"
       id="linearGradient5248"
       gradientUnits="userSpaceOnUse"
       x1="265.46918"
       y1="355.95465"
       x2="229.10367"
       y2="149.88353" />
    <linearGradient
       inkscape:collect="always"
       xlink:href="#linearGradient4231"
       id="linearGradient5258"
       gradientUnits="userSpaceOnUse"
       x1="265.46918"
       y1="355.95465"
       x2="229.10367"
       y2="149.88353" />
    <linearGradient
       inkscape:collect="always"
       xlink:href="#linearGradient4231"
       id="linearGradient5350"
       gradientUnits="userSpaceOnUse"
       x1="265.46918"
       y1="355.95465"
       x2="229.10367"
       y2="149.88353" />
    <linearGradient
       inkscape:collect="always"
       xlink:href="#linearGradient4231"
       id="linearGradient5354"
       gradientUnits="userSpaceOnUse"
       x1="265.46918"
       y1="355.95465"
       x2="229.10367"
       y2="149.88353" />
  </defs>
  <sodipodi:namedview
     id="base"
     pagecolor="#ffffff"
     bordercolor="#666666"
     borderopacity="1.0"
     gridtolerance="10000"
     guidetolerance="10"
     objecttolerance="10"
     inkscape:pageopacity="0.0"
     inkscape:pageshadow="2"
     inkscape:zoom="0.5"
     inkscape:cx="258.11335"
     inkscape:cy="707.04993"
     inkscape:document-units="px"
     inkscape:current-layer="layer1"
     inkscape:window-width="1280"
     inkscape:window-height="730"
     inkscape:window-x="0"
     inkscape:window-y="0" />
  <metadata
     id="metadata7">
    <rdf:RDF>
      <cc:Work
         rdf:about="">
        <dc:format>image/svg+xml</dc:format>
        <dc:type
           rdf:resource="http://purl.org/dc/dcmitype/StillImage" />
      </cc:Work>
    </rdf:RDF>
  </metadata>
  <g
     inkscape:label="Layer 1"
     inkscape:groupmode="layer"
     id="layer1">
    <g
       id="g4243"
       inkscape:export-filename="/home/jreznik/Documents/Drawings/makneto/hi64-action-maknetoonline.png"
       inkscape:export-xdpi="36"
       inkscape:export-ydpi="36"
       transform="matrix(0.9986633,0,0,0.9779066,38.525262,-12.17427)">
      <g
         id="g5201"
         transform="translate(267.49424,158.13451)">
        <path
           sodipodi:type="arc"
           style="fill:#ffffff;fill-opacity:1;stroke:none;stroke-width:2.12598419;stroke-miterlimit:4;stroke-dasharray:none;stroke-opacity:1"
           id="path5189"
           sodipodi:cx="261.42856"
           sodipodi:cy="368.07648"
           sodipodi:rx="80"
           sodipodi:ry="80"
           d="M 341.42856 368.07648 A 80 80 0 1 1  181.42856,368.07648 A 80 80 0 1 1  341.42856 368.07648 z"
           transform="translate(-13.841428,-153.31182)" />
        <path
           sodipodi:type="arc"
           style="fill:url(#linearGradient5214);fill-opacity:1;stroke:none;stroke-width:2.12598419;stroke-miterlimit:4;stroke-dasharray:none;stroke-opacity:1"
           id="path5191"
           sodipodi:cx="261.42856"
           sodipodi:cy="368.07648"
           sodipodi:rx="80"
           sodipodi:ry="80"
           d="M 341.42856 368.07648 A 80 80 0 1 1  181.42856,368.07648 A 80 80 0 1 1  341.42856 368.07648 z"
           transform="translate(-13.841558,-153.31226)" />
        <path
           style="fill:#44aa00;fill-opacity:1;stroke:none;stroke-width:2.12598419;stroke-miterlimit:4;stroke-dasharray:none;stroke-opacity:1"
           d="M 249.09172,177.62903 C 217.68229,177.55011 190.24211,182.60479 174.06047,186.41028 C 169.77916,196.20669 167.37297,207.01014 167.37297,218.37903 C 167.37297,262.53903 203.21297,298.37902 247.37297,298.37903 C 291.53297,298.37903 327.37298,262.53902 327.37297,218.37903 C 327.37297,205.99405 324.56021,194.28559 319.52922,183.81653 C 298.71912,180.6762 272.80874,177.68862 249.09172,177.62903 z "
           id="path5193" />
        <text
           transform="matrix(0,-1,1,0,0,0)"
           id="text5195"
           y="288.18063"
           x="-260.34091"
           style="font-size:119.27991486px;font-style:normal;font-weight:normal;fill:#ffffff;fill-opacity:1;stroke:none;stroke-width:1px;stroke-linecap:butt;stroke-linejoin:miter;stroke-opacity:1;font-family:Bitstream Vera Sans"
           xml:space="preserve"><tspan
             style="font-weight:bold;fill:#ffffff"
             y="288.18063"
             x="-260.34091"
             id="tspan5197"
             sodipodi:role="line">k</tspan></text>
      </g>
    </g>
    <g
       id="g3195"
       transform="matrix(0.9986628,0,0,0.9779066,231.90858,-249.98897)"
       inkscape:export-filename="/home/jreznik/Documents/Drawings/makneto/hi64-action-maknetooffline.png"
       inkscape:export-xdpi="36"
       inkscape:export-ydpi="36">
      <g
         inkscape:export-ydpi="8.7443485"
         inkscape:export-xdpi="8.7443485"
         inkscape:export-filename="/home/jreznik/Documents/Drawings/makneto_dnd.png"
         transform="translate(-124.1777,187.49328)"
         id="g2202"
         style="stroke:none">
        <path
           sodipodi:type="arc"
           style="fill:#ffffff;fill-opacity:1;stroke:none;stroke-width:2.12598419;stroke-miterlimit:4;stroke-dasharray:none;stroke-opacity:1"
           id="path6349"
           sodipodi:cx="261.42856"
           sodipodi:cy="368.07648"
           sodipodi:rx="80"
           sodipodi:ry="80"
           d="M 341.42856 368.07648 A 80 80 0 1 1  181.42856,368.07648 A 80 80 0 1 1  341.42856 368.07648 z"
           transform="translate(-144.25064,60.516823)" />
        <path
           sodipodi:type="arc"
           style="fill:url(#linearGradient2212);fill-opacity:1;stroke:none;stroke-width:2.12598419;stroke-miterlimit:4;stroke-dasharray:none;stroke-opacity:1"
           id="path2204"
           sodipodi:cx="261.42856"
           sodipodi:cy="368.07648"
           sodipodi:rx="80"
           sodipodi:ry="80"
           d="M 341.42856 368.07648 A 80 80 0 1 1  181.42856,368.07648 A 80 80 0 1 1  341.42856 368.07648 z"
           transform="translate(-144.25086,60.516511)" />
        <path
           style="fill:#808080;fill-opacity:1;stroke:none;stroke-width:2.12598419;stroke-miterlimit:4;stroke-dasharray:none;stroke-opacity:1"
           d="M 118.68242,391.4578 C 87.27299,391.37888 59.83281,396.43356 43.651174,400.23905 C 39.369864,410.03546 36.963674,420.83891 36.963674,432.2078 C 36.963674,476.3678 72.803673,512.20779 116.96367,512.2078 C 161.12367,512.2078 196.96368,476.36779 196.96367,432.2078 C 196.96367,419.82282 194.15091,408.11436 189.11992,397.6453 C 168.30982,394.50497 142.39944,391.51739 118.68242,391.4578 z "
           id="path2206" />
      </g>
      <text
         transform="matrix(0,-1,1,0,0,0)"
         id="text3191"
         y="34.312393"
         x="-661.16962"
         style="font-size:119.27991486px;font-style:normal;font-weight:normal;fill:#4d4d4d;fill-opacity:1;stroke:none;stroke-width:1px;stroke-linecap:butt;stroke-linejoin:miter;stroke-opacity:1;font-family:Bitstream Vera Sans"
         xml:space="preserve"><tspan
           style="font-weight:bold;fill:#4d4d4d"
           y="34.312393"
           x="-661.16962"
           id="tspan3193"
           sodipodi:role="line">k</tspan></text>
    </g>
    <g
       id="g5279"
       transform="matrix(0.99944,0,0,0.9940685,-8.6223317,-159.05904)"
       inkscape:export-filename="/home/jreznik/Documents/Drawings/makneto/hi64-action-maknetoinvisible.png"
       inkscape:export-xdpi="36.000008"
       inkscape:export-ydpi="36.000008">
      <g
         id="use5223"
         transform="matrix(0.9992229,0,0,0.9837416,-375.78085,92.972474)">
        <path
           sodipodi:type="arc"
           style="fill:#ffffff;fill-opacity:1;stroke:none;stroke-width:2.12598419;stroke-miterlimit:4;stroke-dasharray:none;stroke-opacity:1"
           id="path5236"
           sodipodi:cx="261.42856"
           sodipodi:cy="368.07648"
           sodipodi:rx="80"
           sodipodi:ry="80"
           d="M 341.42856 368.07648 A 80 80 0 1 1  181.42856,368.07648 A 80 80 0 1 1  341.42856 368.07648 z"
           transform="translate(-144.25073,60.516942)" />
        <path
           sodipodi:type="arc"
           style="fill:url(#linearGradient5242);fill-opacity:1;stroke:none;stroke-width:2.12598419;stroke-miterlimit:4;stroke-dasharray:none;stroke-opacity:1"
           id="path5238"
           sodipodi:cx="261.42856"
           sodipodi:cy="368.07648"
           sodipodi:rx="80"
           sodipodi:ry="80"
           d="M 341.42856 368.07648 A 80 80 0 1 1  181.42856,368.07648 A 80 80 0 1 1  341.42856 368.07648 z"
           transform="translate(-144.25086,60.516511)" />
        <path
           style="fill:#44aa00;fill-opacity:1;stroke:none;stroke-width:2.12598419;stroke-miterlimit:4;stroke-dasharray:none;stroke-opacity:1"
           d="M 118.68242,391.4578 C 87.27299,391.37888 59.83281,396.43356 43.651174,400.23905 C 39.369864,410.03546 36.963674,420.83891 36.963674,432.2078 C 36.963674,476.3678 72.803673,512.20779 116.96367,512.2078 C 161.12367,512.2078 196.96368,476.36779 196.96367,432.2078 C 196.96367,419.82282 194.15091,408.11436 189.11992,397.6453 C 168.30982,394.50497 142.39944,391.51739 118.68242,391.4578 z "
           id="path5240" />
      </g>
      <g
         transform="translate(-379.16029,89.557338)"
         inkscape:export-ydpi="8.7443447"
         inkscape:export-xdpi="8.7443447"
         inkscape:export-filename="/home/jreznik/Documents/Drawings/makneto_online.png"
         id="g3202">
        <path
           transform="matrix(1.5607848,0,0,1.438581,-443.20485,-282.66192)"
           d="M 403 500.86218 A 43 18.5 0 1 1  317,500.86218 A 43 18.5 0 1 1  403 500.86218 z"
           sodipodi:ry="18.5"
           sodipodi:rx="43"
           sodipodi:cy="500.86218"
           sodipodi:cx="360"
           id="path3222"
           style="fill:#ffffff;fill-opacity:1;stroke:#44aa00;stroke-width:11.86102104;stroke-miterlimit:4;stroke-dasharray:none;stroke-opacity:1"
           sodipodi:type="arc" />
        <path
           transform="matrix(0.7073171,0,0,0.5808768,-133.77352,146.69821)"
           d="M 376 500.86218 A 20.5 24.5 0 1 1  335,500.86218 A 20.5 24.5 0 1 1  376 500.86218 z"
           sodipodi:ry="24.5"
           sodipodi:rx="20.5"
           sodipodi:cy="500.86218"
           sodipodi:cx="355.5"
           id="path3224"
           style="fill:#000000;fill-opacity:1;stroke:none;stroke-width:17.77300072;stroke-miterlimit:4;stroke-dasharray:none;stroke-opacity:1"
           sodipodi:type="arc" />
        <path
           id="path3226"
           d="M 68.1777,400.8689 C 72.63432,402.30528 74.81193,407.4058 76.1777,412.8689 C 80.6777,430.8689 73.26103,407.03556 77.1777,414.8689"
           style="fill:none;fill-rule:evenodd;stroke:#000000;stroke-width:1px;stroke-linecap:butt;stroke-linejoin:miter;stroke-opacity:1" />
        <path
           id="path3228"
           d="M 88.425745,394.41975 C 92.882365,395.85613 95.059975,400.95665 96.425745,406.41975 C 100.92575,424.41975 93.509075,400.58641 97.425745,408.41975"
           style="fill:none;fill-rule:evenodd;stroke:#000000;stroke-width:1px;stroke-linecap:butt;stroke-linejoin:miter;stroke-opacity:1" />
        <path
           id="path3230"
           d="M 170.05368,401.64433 C 165.59706,403.08071 163.41945,408.18123 162.05368,413.64433 C 157.55368,431.64433 164.97035,407.81099 161.05368,415.64433"
           style="fill:none;fill-rule:evenodd;stroke:#000000;stroke-width:1px;stroke-linecap:butt;stroke-linejoin:miter;stroke-opacity:1" />
        <path
           id="path3232"
           d="M 149.80563,395.19518 C 145.34901,396.63156 143.1714,401.73208 141.80563,407.19518 C 137.30563,425.19518 144.7223,401.36184 140.80563,409.19518"
           style="fill:none;fill-rule:evenodd;stroke:#000000;stroke-width:1px;stroke-linecap:butt;stroke-linejoin:miter;stroke-opacity:1" />
        <path
           transform="translate(-235.8223,-59.493285)"
           id="path3234"
           d="M 354,453.36218 C 353.27511,456.99768 354.84283,462.73352 356,467.36218 C 356.27755,468.47237 356.66493,470.02192 357,471.36218"
           style="fill:none;fill-rule:evenodd;stroke:#000000;stroke-width:1px;stroke-linecap:butt;stroke-linejoin:miter;stroke-opacity:1" />
      </g>
    </g>
    <g
       id="g5216"
       transform="matrix(0.9992229,0,0,0.9837416,-220.21343,-69.149441)">
      <path
         sodipodi:type="arc"
         style="fill:#ffffff;fill-opacity:1;stroke:none;stroke-width:2.12598419;stroke-miterlimit:4;stroke-dasharray:none;stroke-opacity:1"
         id="path5185"
         sodipodi:cx="261.42856"
         sodipodi:cy="368.07648"
         sodipodi:rx="80"
         sodipodi:ry="80"
         d="M 341.42856 368.07648 A 80 80 0 1 1  181.42856,368.07648 A 80 80 0 1 1  341.42856 368.07648 z"
         transform="translate(-144.25073,60.516942)" />
      <path
         sodipodi:type="arc"
         style="fill:url(#linearGradient5248);fill-opacity:1;stroke:none;stroke-width:2.12598419;stroke-miterlimit:4;stroke-dasharray:none;stroke-opacity:1"
         id="path3259"
         sodipodi:cx="261.42856"
         sodipodi:cy="368.07648"
         sodipodi:rx="80"
         sodipodi:ry="80"
         d="M 341.42856 368.07648 A 80 80 0 1 1  181.42856,368.07648 A 80 80 0 1 1  341.42856 368.07648 z"
         transform="translate(-144.25086,60.516511)" />
      <path
         style="fill:#44aa00;fill-opacity:1;stroke:none;stroke-width:2.12598419;stroke-miterlimit:4;stroke-dasharray:none;stroke-opacity:1"
         d="M 118.68242,391.4578 C 87.27299,391.37888 59.83281,396.43356 43.651174,400.23905 C 39.369864,410.03546 36.963674,420.83891 36.963674,432.2078 C 36.963674,476.3678 72.803673,512.20779 116.96367,512.2078 C 161.12367,512.2078 196.96368,476.36779 196.96367,432.2078 C 196.96367,419.82282 194.15091,408.11436 189.11992,397.6453 C 168.30982,394.50497 142.39944,391.51739 118.68242,391.4578 z "
         id="path2160" />
    </g>
    <g
       id="g5270"
       transform="matrix(0.99944,0,0,0.9940685,4.274314,32.13319)"
       inkscape:export-filename="/home/jreznik/Documents/Drawings/makneto/hi64-action-maknetodnd.png"
       inkscape:export-xdpi="36"
       inkscape:export-ydpi="36">
      <g
         id="g5250"
         transform="matrix(0.9992229,0,0,0.9837416,-60.411235,-99.360575)">
        <path
           sodipodi:type="arc"
           style="fill:#ffffff;fill-opacity:1;stroke:none;stroke-width:2.12598419;stroke-miterlimit:4;stroke-dasharray:none;stroke-opacity:1"
           id="path5252"
           sodipodi:cx="261.42856"
           sodipodi:cy="368.07648"
           sodipodi:rx="80"
           sodipodi:ry="80"
           d="M 341.42856 368.07648 A 80 80 0 1 1  181.42856,368.07648 A 80 80 0 1 1  341.42856 368.07648 z"
           transform="translate(-144.25073,60.516942)" />
        <path
           sodipodi:type="arc"
           style="fill:url(#linearGradient5258);fill-opacity:1;stroke:none;stroke-width:2.12598419;stroke-miterlimit:4;stroke-dasharray:none;stroke-opacity:1"
           id="path5254"
           sodipodi:cx="261.42856"
           sodipodi:cy="368.07648"
           sodipodi:rx="80"
           sodipodi:ry="80"
           d="M 341.42856 368.07648 A 80 80 0 1 1  181.42856,368.07648 A 80 80 0 1 1  341.42856 368.07648 z"
           transform="translate(-144.25086,60.516511)" />
        <path
           style="fill:#44aa00;fill-opacity:1;stroke:none;stroke-width:2.12598419;stroke-miterlimit:4;stroke-dasharray:none;stroke-opacity:1"
           d="M 118.68242,391.4578 C 87.27299,391.37888 59.83281,396.43356 43.651174,400.23905 C 39.369864,410.03546 36.963674,420.83891 36.963674,432.2078 C 36.963674,476.3678 72.803673,512.20779 116.96367,512.2078 C 161.12367,512.2078 196.96368,476.36779 196.96367,432.2078 C 196.96367,419.82282 194.15091,408.11436 189.11992,397.6453 C 168.30982,394.50497 142.39944,391.51739 118.68242,391.4578 z "
           id="path5256" />
      </g>
      <g
         id="g5263"
         transform="translate(-66.469114,268.77755)">
        <path
           style="fill:#a40000;fill-opacity:1;fill-rule:evenodd;stroke:#ca3500;stroke-width:17.60000038;stroke-linecap:butt;stroke-linejoin:miter;stroke-miterlimit:4;stroke-dasharray:none;stroke-opacity:1"
           d="M 86.45187,7.9288605 L 162.45187,102.92886"
           id="path4273" />
        <path
           style="fill:#550000;fill-rule:evenodd;stroke:#ca3500;stroke-width:17.60000038;stroke-linecap:butt;stroke-linejoin:miter;stroke-miterlimit:4;stroke-dasharray:none;stroke-opacity:1"
           d="M 162.45187,10.428861 L 86.45187,105.42886"
           id="path5244" />
      </g>
    </g>
    <g
       id="g5312"
       transform="matrix(0.99944,0,0,0.9940685,114.6074,174.12154)"
       inkscape:export-filename="/home/jreznik/Documents/Drawings/makneto/hi64-action-maknetoaway.png"
       inkscape:export-xdpi="36"
       inkscape:export-ydpi="36">
      <g
         id="g5293"
         transform="matrix(0.9992229,0,0,0.9837416,157.37765,-242.19615)">
        <path
           sodipodi:type="arc"
           style="fill:#ffffff;fill-opacity:1;stroke:none;stroke-width:2.12598419;stroke-miterlimit:4;stroke-dasharray:none;stroke-opacity:1"
           id="path5295"
           sodipodi:cx="261.42856"
           sodipodi:cy="368.07648"
           sodipodi:rx="80"
           sodipodi:ry="80"
           d="M 341.42856 368.07648 A 80 80 0 1 1  181.42856,368.07648 A 80 80 0 1 1  341.42856 368.07648 z"
           transform="translate(-144.25073,60.516942)" />
        <path
           sodipodi:type="arc"
           style="fill:url(#linearGradient5354);fill-opacity:1;stroke:none;stroke-width:2.12598419;stroke-miterlimit:4;stroke-dasharray:none;stroke-opacity:1"
           id="path5297"
           sodipodi:cx="261.42856"
           sodipodi:cy="368.07648"
           sodipodi:rx="80"
           sodipodi:ry="80"
           d="M 341.42856 368.07648 A 80 80 0 1 1  181.42856,368.07648 A 80 80 0 1 1  341.42856 368.07648 z"
           transform="translate(-144.25086,60.516511)" />
        <path
           style="fill:#44aa00;fill-opacity:1;stroke:none;stroke-width:2.12598419;stroke-miterlimit:4;stroke-dasharray:none;stroke-opacity:1"
           d="M 118.68242,391.4578 C 87.27299,391.37888 59.83281,396.43356 43.651174,400.23905 C 39.369864,410.03546 36.963674,420.83891 36.963674,432.2078 C 36.963674,476.3678 72.803673,512.20779 116.96367,512.2078 C 161.12367,512.2078 196.96368,476.36779 196.96367,432.2078 C 196.96367,419.82282 194.15091,408.11436 189.11992,397.6453 C 168.30982,394.50497 142.39944,391.51739 118.68242,391.4578 z "
           id="path5299" />
      </g>
      <g
         transform="translate(-2.8284286,-186.67619)"
         id="g5305">
        <path
           sodipodi:type="arc"
           style="fill:#ffffff;fill-opacity:1;stroke:none;stroke-width:17.60000038;stroke-miterlimit:4;stroke-dasharray:none;stroke-opacity:1"
           id="path5246"
           sodipodi:cx="473.05444"
           sodipodi:cy="709.41541"
           sodipodi:rx="31.819805"
           sodipodi:ry="31.819805"
           d="M 504.87425 709.41541 A 31.819805 31.819805 0 1 1  441.23464,709.41541 A 31.819805 31.819805 0 1 1  504.87425 709.41541 z"
           transform="matrix(1.2222222,0,0,1.2222222,-301.56349,-498.11978)" />
        <path
           sodipodi:type="arc"
           style="fill:#000000;fill-opacity:1;stroke:none;stroke-width:17.60000038;stroke-miterlimit:4;stroke-dasharray:none;stroke-opacity:1"
           id="path5248"
           sodipodi:cx="473.05444"
           sodipodi:cy="709.41541"
           sodipodi:rx="31.819805"
           sodipodi:ry="31.819805"
           d="M 504.87425,709.41541 A 31.819805,31.819805 0 0 1 471.65199,741.20429 L 473.05444,709.41541 z"
           transform="matrix(1.5333333,0,0,1.5333333,-446.17835,-719.53389)"
           sodipodi:start="0"
           sodipodi:end="1.6148854" />
      </g>
    </g>
    <g
       id="g5341"
       transform="matrix(0.99944,0,0,0.9940685,-77.923075,129.13512)"
       inkscape:export-filename="/home/jreznik/Documents/Drawings/makneto/hi64-action-maknetoxa.png"
       inkscape:export-xdpi="36"
       inkscape:export-ydpi="36">
      <g
         id="g5328"
         transform="matrix(0.9992229,0,0,0.9837416,-470.53317,-196.94131)">
        <path
           sodipodi:type="arc"
           style="fill:#ffffff;fill-opacity:1;stroke:none;stroke-width:2.12598419;stroke-miterlimit:4;stroke-dasharray:none;stroke-opacity:1"
           id="path5330"
           sodipodi:cx="261.42856"
           sodipodi:cy="368.07648"
           sodipodi:rx="80"
           sodipodi:ry="80"
           d="M 341.42856 368.07648 A 80 80 0 1 1  181.42856,368.07648 A 80 80 0 1 1  341.42856 368.07648 z"
           transform="translate(-144.25073,60.516942)" />
        <path
           sodipodi:type="arc"
           style="fill:url(#linearGradient5350);fill-opacity:1;stroke:none;stroke-width:2.12598419;stroke-miterlimit:4;stroke-dasharray:none;stroke-opacity:1"
           id="path5332"
           sodipodi:cx="261.42856"
           sodipodi:cy="368.07648"
           sodipodi:rx="80"
           sodipodi:ry="80"
           d="M 341.42856 368.07648 A 80 80 0 1 1  181.42856,368.07648 A 80 80 0 1 1  341.42856 368.07648 z"
           transform="translate(-144.25086,60.516511)" />
        <path
           style="fill:#44aa00;fill-opacity:1;stroke:none;stroke-width:2.12598419;stroke-miterlimit:4;stroke-dasharray:none;stroke-opacity:1"
           d="M 118.68242,391.4578 C 87.27299,391.37888 59.83281,396.43356 43.651174,400.23905 C 39.369864,410.03546 36.963674,420.83891 36.963674,432.2078 C 36.963674,476.3678 72.803673,512.20779 116.96367,512.2078 C 161.12367,512.2078 196.96368,476.36779 196.96367,432.2078 C 196.96367,419.82282 194.15091,408.11436 189.11992,397.6453 C 168.30982,394.50497 142.39944,391.51739 118.68242,391.4578 z "
           id="path5334" />
      </g>
      <g
         id="g5324"
         transform="translate(-200.71089,-144.47938)">
        <path
           sodipodi:type="arc"
           style="fill:#ffffff;fill-opacity:1;stroke:none;stroke-width:17.60000038;stroke-miterlimit:4;stroke-dasharray:none;stroke-opacity:1"
           id="path2196"
           sodipodi:cx="473.05444"
           sodipodi:cy="709.41541"
           sodipodi:rx="31.819805"
           sodipodi:ry="31.819805"
           d="M 504.87425 709.41541 A 31.819805 31.819805 0 1 1  441.23464,709.41541 A 31.819805 31.819805 0 1 1  504.87425 709.41541 z"
           transform="matrix(1.2222222,0,0,1.2222222,-731.40047,-495.06176)" />
        <path
           sodipodi:type="arc"
           style="fill:#000000;fill-opacity:1;stroke:none;stroke-width:17.60000038;stroke-miterlimit:4;stroke-dasharray:none;stroke-opacity:1"
           id="path2198"
           sodipodi:cx="473.05444"
           sodipodi:cy="709.41541"
           sodipodi:rx="31.819805"
           sodipodi:ry="31.819805"
           d="M 504.87425,709.41541 A 31.819805,31.819805 0 0 1 443.92856,722.2288 L 473.05444,709.41541 z"
           transform="matrix(1.5333333,0,0,1.5333333,-876.01533,-716.47587)"
           sodipodi:start="0"
           sodipodi:end="2.7271432" />
      </g>
    </g>
  </g>
</svg>
